<?xml version="1.0"?>
<svg xmlns="http://www.w3.org/2000/svg" xmlns:xlink="http://www.w3.org/1999/xlink" xmlns:svgjs="http://svgjs.com/svgjs" version="1.1" width="512" height="512" x="0" y="0" viewBox="0 0 512 512" style="enable-background:new 0 0 512 512" xml:space="preserve" class=""><g><g xmlns="http://www.w3.org/2000/svg"><g><path d="m512 58.75v30h-151.07v423.25h-30v-423.25h-74.93l-15.511-13.58 15.511-16.42h74.93v-58.75h30v58.75z" fill="#f3f4f5" data-original="#493373" style="" class=""/><path d="m256 58.75v30h-74.93v423.25h-30v-423.25h-151.07v-30h151.07v-58.75h30v58.75z" fill="#f3f4f5" data-original="#624d8c" style="" class=""/></g><g><g><path d="m301 214.959h-45l-22.5-45 22.5-45h45z" fill="#e666ff" data-original="#e666ff" style="" class=""/><path d="m211 124.959h45v90h-45z" fill="#ee99ff" data-original="#ee99ff" style=""/></g><g><path d="m391.465 124.959h90v90h-90z" fill="#ffdd33" data-original="#ffdd33" style="" class=""/><path d="m391.465 256.959h90v90h-90z" fill="#e666ff" data-original="#e666ff" style="" class=""/></g><g><path d="m30.385 124.959h90v90h-90z" fill="#ffea80" data-original="#ffea80" style=""/><path d="m30.385 256.959h90v90h-90z" fill="#80d4ff" data-original="#80d4ff" style="" class=""/><path d="m30.385 388.96h90v90h-90z" fill="#ee99ff" data-original="#ee99ff" style=""/></g></g></g></g></svg>
